<svg id="Layer_1" data-name="Layer 1" xmlns="http://www.w3.org/2000/svg" viewBox="0 0 20.28 20.12"><defs><style>.cls-1{fill:none}.cls-2{clip-path:url(#clip-path)}.cls-3{fill:#010000}</style><clipPath id="clip-path"><path class="cls-1" d="M0 0h20.28v20.12H0z"/></clipPath></defs><title>ui-facebook</title><g class="cls-2"><path class="cls-3" d="M19.16 0h-18A1.12 1.12 0 0 0 0 1.11V19a1.12 1.12 0 0 0 1.12 1.11h9.71v-7.78H8.19v-3h2.64V7.05a3.67 3.67 0 0 1 3.94-4 21 21 0 0 1 2.36.12v2.7h-1.62c-1.27 0-1.51.6-1.51 1.48v1.94h3l-.4 3H14v7.79h5.16A1.12 1.12 0 0 0 20.28 19V1.11A1.12 1.12 0 0 0 19.16 0"/></g></svg>