<?xml version="1.0" standalone="no"?>
<!DOCTYPE svg PUBLIC "-//W3C//DTD SVG 20010904//EN"
 "http://www.w3.org/TR/2001/REC-SVG-20010904/DTD/svg10.dtd">
<svg version="1.0" xmlns="http://www.w3.org/2000/svg"
 width="16.000000pt" height="16.000000pt" viewBox="0 0 16.000000 16.000000"
 preserveAspectRatio="xMidYMid meet">
<metadata>
Created by potrace 1.11, written by Peter Selinger 2001-2013
</metadata>
<g transform="translate(0.000000,16.000000) scale(0.003053,-0.003053)"
fill="#000000" stroke="none">
<path d="M2754 4784 c-54 -49 -101 -91 -104 -94 -3 -3 -50 -46 -105 -95 -55
-50 -102 -92 -105 -95 -7 -7 -175 -158 -224 -201 -21 -19 -48 -43 -60 -55 -12
-11 -64 -58 -116 -105 -52 -46 -104 -93 -116 -104 -11 -11 -54 -49 -94 -85
-40 -36 -82 -74 -94 -85 -13 -11 -47 -42 -78 -70 -162 -148 -233 -212 -252
-228 -35 -31 -87 -77 -191 -172 -55 -50 -115 -104 -134 -120 -48 -43 -67 -61
-171 -155 -182 -165 -364 -329 -455 -410 -33 -29 -62 -56 -65 -59 -3 -3 -43
-40 -90 -81 -46 -41 -91 -82 -100 -90 -9 -8 -58 -53 -108 -99 l-92 -84 33 -41
c19 -22 83 -104 143 -181 60 -77 114 -147 121 -155 7 -8 161 -206 344 -440
182 -234 342 -438 355 -455 13 -16 53 -68 90 -115 36 -47 76 -97 87 -112 12
-15 94 -119 182 -232 l159 -206 1064 0 1065 0 41 37 c41 37 183 164 285 258
31 28 60 55 67 60 38 34 169 152 178 160 6 6 81 73 166 150 85 77 160 144 166
150 6 5 43 39 83 75 104 92 121 108 171 154 25 23 85 77 135 121 49 44 99 89
110 100 12 11 54 49 95 85 90 80 100 90 100 98 0 4 -64 88 -141 187 -78 99
-160 205 -182 235 -23 30 -44 57 -47 60 -5 4 -611 781 -714 915 -17 22 -33 42
-36 45 -3 3 -93 118 -200 255 -106 138 -212 273 -234 301 -23 28 -52 65 -66
84 -14 18 -99 128 -190 244 -236 301 -553 707 -566 724 -9 12 -28 -1 -110 -74z
m272 -654 c106 -52 219 -181 272 -313 50 -124 44 -243 -19 -369 -28 -55 -100
-152 -145 -193 -61 -56 -96 -85 -172 -142 -76 -58 -112 -75 -112 -55 0 4 -13
23 -29 42 -16 19 -118 150 -227 290 -109 140 -200 257 -203 260 -4 3 -25 30
-47 60 l-42 56 30 34 c65 75 175 185 230 231 67 56 189 119 244 126 22 3 41 7
42 8 2 2 29 2 59 0 36 -2 78 -14 119 -35z m-765 -615 c52 -66 99 -127 106
-135 14 -17 235 -300 295 -378 l41 -52 -45 -68 c-104 -157 -239 -284 -362
-343 -115 -55 -236 -28 -341 76 -41 42 -167 198 -363 452 l-32 42 69 70 c61
61 149 129 155 119 1 -2 22 -28 47 -59 24 -30 55 -71 69 -89 14 -18 30 -38 35
-44 6 -6 40 -49 75 -96 157 -207 209 -231 309 -141 l42 38 -34 44 c-66 87
-360 464 -373 480 -13 14 -9 22 28 64 51 58 159 146 175 142 6 -1 53 -56 104
-122z m-811 -658 c74 -14 180 -94 237 -177 9 -14 20 -27 23 -30 12 -10 290
-370 293 -379 3 -14 -91 -109 -156 -158 l-59 -43 -35 48 c-191 252 -318 404
-351 421 -59 29 -117 9 -161 -55 l-24 -34 51 -53 c28 -28 101 -117 163 -197
61 -80 134 -172 160 -206 l48 -60 -52 -56 c-56 -60 -155 -141 -167 -136 -4 2
-82 98 -173 214 -185 236 -213 264 -262 264 -37 0 -118 -54 -123 -82 -3 -13
299 -413 370 -492 35 -39 32 -53 -24 -112 -56 -59 -138 -124 -156 -124 -6 0
-98 111 -204 248 -106 136 -198 254 -205 262 -7 8 -40 50 -73 93 l-61 78 42
71 c91 150 275 318 383 348 40 11 48 19 72 64 49 95 105 157 204 223 88 59
156 76 240 60z"/>
<path d="M2765 3866 c-37 -17 -95 -68 -95 -85 0 -9 97 -139 173 -231 7 -9 33
-41 56 -73 43 -57 44 -57 65 -40 99 84 119 156 71 258 -14 30 -46 76 -70 103
-69 77 -132 98 -200 68z"/>
</g>
</svg>
