<svg id="Layer_1" data-name="Layer 1" xmlns="http://www.w3.org/2000/svg" xmlns:xlink="http://www.w3.org/1999/xlink" viewBox="0 0 20.04 20.06"><defs><style>.cls-1{fill:none;}.cls-2{clip-path:url(#clip-path);}.cls-3{fill:#1d1d1b;}</style><clipPath id="clip-path" transform="translate(0 0)"><rect class="cls-1" width="20.03" height="20.06"/></clipPath></defs><title>ui-instagram</title><g class="cls-2"><path class="cls-3" d="M18.26,9.85h0c0-.79,0-1.58,0-2.37s0-1.52-.13-2.27A3.36,3.36,0,0,0,15.24,2a16.45,16.45,0,0,0-2.72-.21q-2.5,0-5,0A17.13,17.13,0,0,0,4.93,2,3.24,3.24,0,0,0,2.1,4.49a5.75,5.75,0,0,0-.22,1.42c0,1.82-.07,3.63-.06,5.44,0,1.16,0,2.32.13,3.47A3.33,3.33,0,0,0,4.78,18a16.81,16.81,0,0,0,2.75.21c1.66,0,3.32,0,5,0,.78,0,1.55-.05,2.32-.12a3.55,3.55,0,0,0,3.3-3.65c.08-1.53.09-3.06.13-4.59M10,20.05C8.66,20,7.3,20,6,20a6.5,6.5,0,0,1-3.31-.87,5,5,0,0,1-2.4-3.53A18.36,18.36,0,0,1,0,12.81c0-2,0-4,0-5.95a9.7,9.7,0,0,1,.4-3.12,5,5,0,0,1,4-3.5A15.93,15.93,0,0,1,7.22,0c2,0,4,0,6,0a9.79,9.79,0,0,1,3.09.39,5,5,0,0,1,3.51,4.05A17,17,0,0,1,20,7.23c0,2,0,4,0,5.94a9.69,9.69,0,0,1-.39,3.12,5,5,0,0,1-4,3.5,19.78,19.78,0,0,1-2.77.23c-.94,0-1.87,0-2.81,0v0" transform="translate(0 0)"/><path class="cls-3" d="M10,13.36A3.34,3.34,0,1,0,6.68,10,3.36,3.36,0,0,0,10,13.36m0,1.8a5.15,5.15,0,1,1,5.16-5.08A5.13,5.13,0,0,1,10,15.16" transform="translate(0 0)"/><path class="cls-3" d="M15.39,3.47A1.19,1.19,0,0,1,16.57,4.7a1.21,1.21,0,0,1-1.22,1.18,1.23,1.23,0,0,1-1.2-1.22,1.21,1.21,0,0,1,1.24-1.19" transform="translate(0 0)"/></g></svg>