<svg id="Layer_1" data-name="Layer 1" xmlns="http://www.w3.org/2000/svg" xmlns:xlink="http://www.w3.org/1999/xlink" viewBox="0 0 20.82 16.51"><defs><style>.cls-1{fill:none;}.cls-2{clip-path:url(#clip-path);}.cls-3{fill:#010000;}</style><clipPath id="clip-path" transform="translate(0 0)"><rect class="cls-1" width="20.82" height="16.51"/></clipPath></defs><title>ui-twitter</title><g class="cls-2"><path class="cls-3" d="M10.23,5.1A4.16,4.16,0,0,1,12.48.45a4.41,4.41,0,0,1,5.07.85.45.45,0,0,0,.16,0A9,9,0,0,0,20.11.4l.13-.06h0A2.76,2.76,0,0,1,20,1a3.62,3.62,0,0,1-.41.61,3.58,3.58,0,0,1-.51.52l-.6.46a9.09,9.09,0,0,0,1.22-.23A10.47,10.47,0,0,0,20.82,2a6,6,0,0,1-.95,1.17,9.4,9.4,0,0,1-1.13,1,.33.33,0,0,0,0,.17,11.64,11.64,0,0,1,0,1.32,11.45,11.45,0,0,1-.36,2,12.15,12.15,0,0,1-2.54,4.81,11.56,11.56,0,0,1-6.34,3.78,12.11,12.11,0,0,1-2.08.29,12.48,12.48,0,0,1-5.52-.87,12.55,12.55,0,0,1-1.72-.86L0,14.67s0,0,0,0A8.9,8.9,0,0,0,4.36,14a8.26,8.26,0,0,0,1.87-1.08s0,0-.06,0c-.21,0-.43,0-.63-.08a4.26,4.26,0,0,1-3.12-2.46A1.25,1.25,0,0,1,2.3,10l.62.06a4.33,4.33,0,0,0,.62,0A4.76,4.76,0,0,0,4.16,10,.23.23,0,0,0,4,9.9,4.22,4.22,0,0,1,1.26,7.78,3.94,3.94,0,0,1,.78,6a.71.71,0,0,1,0-.14c.21.08.4.18.61.25A4.21,4.21,0,0,0,2,6.24a2.06,2.06,0,0,0,.67.07c-.09-.08-.18-.13-.25-.19l-.22-.18L2,5.75l-.2-.22-.18-.22c-.06-.08-.11-.16-.16-.24a1.76,1.76,0,0,1-.14-.23,2.1,2.1,0,0,1-.13-.26l-.12-.26L1,4.05a2.29,2.29,0,0,1-.07-.28L.86,3.51l0-.28c0-.1,0-.19,0-.29a2.62,2.62,0,0,1,0-.28,2.45,2.45,0,0,1,0-.27,2.89,2.89,0,0,1,0-.29A2.68,2.68,0,0,1,1,1.83,2.29,2.29,0,0,1,1,1.55l.09-.25L1.24,1A2,2,0,0,1,1.38.79c.06,0,.08.06.11.09A13.17,13.17,0,0,0,2.6,2,12.28,12.28,0,0,0,8.26,4.86,12.34,12.34,0,0,0,10,5.1h.26" transform="translate(0 0)"/></g></svg>