<svg xmlns="http://www.w3.org/2000/svg" width="57" height="57" viewBox="0 0 57 57"><path d="M28.5 0C12.8 0 0 12.8 0 28.5S12.8 57 28.5 57 57 44.2 57 28.5 44.2 0 28.5 0zm0 54.6c-14.4 0-26.1-11.7-26.1-26.1S14.1 2.4 28.5 2.4s26.1 11.7 26.1 26.1-11.7 26.1-26.1 26.1z"/><path d="M41.6 25.5L25 15.3c-1.1-.7-2.4-.7-3.5-.1s-1.8 1.7-1.8 3v20.6c0 1.3.7 2.4 1.8 3 .5.3 1.1.4 1.7.4.7 0 1.3-.2 1.9-.5l16.6-10.3c1-.7 1.6-1.7 1.6-2.9-.1-1.2-.7-2.3-1.7-3zm-1.3 3.9L23.7 39.6c-.5.3-.9.1-1.1 0-.2-.1-.5-.4-.5-.9V18.1c0-.5.4-.8.5-.9.1-.1.3-.1.5-.1s.4.1.5.2l16.6 10.3c.4.3.5.7.5.9.1.1.1.6-.4.9z"/></svg>
